<svg width="96" height="35" viewBox="0 0 96 35" fill="none" xmlns="http://www.w3.org/2000/svg">
<path d="M18.268 10.912L1.348 17.212L0.88 19.588L15.316 25.852L15.748 23.728L3.508 18.544L17.764 13.324L18.268 10.912ZM48.7929 18.004C51.7089 17.068 53.9049 14.728 53.9049 11.164C53.9049 7.636 50.9889 5.8 46.1649 5.8H35.4009L30.3609 31H42.0609C48.6489 31 52.8249 28.3 52.8249 23.188C52.8249 20.416 51.3129 18.688 48.7929 18.004ZM45.6609 7.996C49.1169 7.996 51.1689 9.148 51.1689 11.632C51.1689 15.268 48.1089 17.14 43.7889 17.14H35.7609L37.5969 7.996H45.6609ZM42.2769 28.804H33.4569L35.3289 19.336H44.3289C48.1449 19.336 50.1969 20.38 50.1969 23.224C50.1969 26.86 47.3169 28.804 42.2769 28.804ZM61.1274 34.6H63.6114L82.1874 0.687998H79.7034L61.1274 34.6ZM81.43 10.912L80.998 13.072L93.166 18.292L78.946 23.476L78.442 25.852L95.326 19.588L95.794 17.212L81.43 10.912Z" fill="#043353"/>
</svg>
