<svg xmlns="http://www.w3.org/2000/svg" viewBox="0 0 353 353"><defs><style>.cls-1,.cls-16{fill:none;}.cls-1{stroke:#043353;}.cls-1,.cls-2{stroke-miterlimit:10;stroke-width:3px;}.cls-2{fill:#e44652;stroke:#e44652;}.cls-3{fill:#043353;}.cls-4{fill:#4f7087;}.cls-5{fill:#272935;}.cls-6{fill:#4a5469;}.cls-7{fill:#61646c;}.cls-8{fill:#bcbec5;}.cls-9{fill:#b9805a;}.cls-10{fill:#0f89a3;}.cls-11{fill:#8ab965;}.cls-12{fill:#d0424a;}.cls-13{fill:#e6e8ea;}.cls-14{fill:#ac308e;}.cls-15{fill:#474a53;}</style></defs><g id="Layer_2" data-name="Layer 2"><g id="Layer_5" data-name="Layer 5"><circle class="cls-1" cx="176.5" cy="176.5" r="175"/><circle class="cls-2" cx="311" cy="64" r="7.5"/></g><g id="Layer_4" data-name="Layer 4"><circle class="cls-1" cx="176.5" cy="176.5" r="150"/><circle class="cls-2" cx="95.12" cy="51.03" r="7.5"/></g><g id="Layer_3" data-name="Layer 3"><circle class="cls-1" cx="176.5" cy="176.5" r="125"/><circle class="cls-2" cx="216.15" cy="294.05" r="7.5"/></g><g id="Layer_2-2" data-name="Layer 2"><rect class="cls-3" x="142.5" y="222.73" width="68.01" height="28.69"/><rect class="cls-4" x="68.64" y="96.27" width="215.72" height="134.96" rx="2"/><rect class="cls-4" x="125.49" y="251.42" width="102.01" height="5.31"/><rect class="cls-5" x="78.74" y="105.01" width="195.53" height="117.71"/><rect class="cls-6" x="78.74" y="105.01" width="195.53" height="5.31"/><rect class="cls-7" x="54.93" y="165.69" width="112.39" height="1.68" transform="matrix(0, -1, 1, 0, -55.4, 277.66)"/><rect class="cls-7" x="250.46" y="106.41" width="21.88" height="2.52" rx="1.26" transform="translate(522.81 215.34) rotate(180)"/><rect class="cls-8" x="85.25" y="112.68" width="20.89" height="1.82" rx="0.91"/><rect class="cls-9" x="117.83" y="112.68" width="20.89" height="1.82" rx="0.91"/><rect class="cls-10" x="117.83" y="121.02" width="47.35" height="1.82" rx="0.91"/><rect class="cls-11" x="168.71" y="121.02" width="47.35" height="1.82" rx="0.91"/><rect class="cls-12" x="117.83" y="129.37" width="63.44" height="1.82" rx="0.91"/><rect class="cls-11" x="122.41" y="137.71" width="113.11" height="1.82" rx="0.91"/><rect class="cls-12" x="117.83" y="146.05" width="36.3" height="1.82" rx="0.91"/><rect class="cls-10" x="156.58" y="146.05" width="76.14" height="1.82" rx="0.91"/><rect class="cls-12" x="128.27" y="154.4" width="63.44" height="1.82" rx="0.91"/><rect class="cls-10" x="194.77" y="154.4" width="63.44" height="1.82" rx="0.91"/><rect class="cls-13" x="117.83" y="162.74" width="31.72" height="1.82" rx="0.91"/><rect class="cls-10" x="152.85" y="162.74" width="31.72" height="1.82" rx="0.91"/><rect class="cls-9" x="187.5" y="162.74" width="31.72" height="1.82" rx="0.91"/><rect class="cls-14" x="117.83" y="170.97" width="18.15" height="1.82" rx="0.91"/><rect class="cls-13" x="117.83" y="179.07" width="22.04" height="1.82" rx="0.91"/><rect class="cls-13" x="142.15" y="179.07" width="38" height="1.82" rx="0.91"/><rect class="cls-12" x="184.34" y="179.07" width="63.44" height="1.82" rx="0.91"/><rect class="cls-9" x="117.83" y="187.18" width="88.4" height="1.82" rx="0.91"/><rect class="cls-12" x="117.83" y="195.29" width="33.4" height="1.82" rx="0.91"/><rect class="cls-12" x="117.83" y="203.99" width="20.69" height="1.82" rx="0.91"/><rect class="cls-11" x="140.88" y="203.99" width="33.51" height="1.82" rx="0.91"/><rect class="cls-10" x="176.5" y="203.99" width="33.51" height="1.82" rx="0.91"/><rect class="cls-12" x="142.5" y="112.68" width="20.89" height="1.82" rx="0.91"/><rect class="cls-12" x="219.22" y="121.02" width="20.89" height="1.82" rx="0.91"/><rect class="cls-15" x="89.64" y="116.85" width="10.45" height="1.82" rx="0.91"/><rect class="cls-15" x="89.64" y="121.02" width="7.98" height="1.82" rx="0.91"/><rect class="cls-8" x="85.25" y="125.2" width="20.89" height="1.82" rx="0.91"/><rect class="cls-8" x="85.25" y="129.37" width="20.89" height="1.82" rx="0.91"/><rect class="cls-15" x="89.37" y="133.54" width="13.35" height="1.82" rx="0.91"/><rect class="cls-15" x="89.37" y="137.64" width="8.25" height="1.82" rx="0.91"/><rect class="cls-15" x="89.37" y="141.85" width="12.98" height="1.82" rx="0.91"/><rect class="cls-8" x="85.25" y="146.05" width="20.89" height="1.82" rx="0.91"/><rect class="cls-15" x="89.37" y="150.23" width="16.77" height="1.82" rx="0.91"/><rect class="cls-8" x="85.25" y="154.4" width="20.89" height="1.82" rx="0.91"/><rect class="cls-8" x="85.25" y="158.57" width="14.84" height="1.82" rx="0.91"/><rect class="cls-8" x="85.25" y="162.74" width="20.89" height="1.82" rx="0.91"/><rect class="cls-16" x="89.37" y="166.91" width="12.98" height="1.82" rx="0.91"/></g></g></svg>