<svg width="300" height="200" viewBox="0 0 300 200" fill="none" xmlns="http://www.w3.org/2000/svg">
<rect width="300" height="200" rx="25" fill="#EDF2F6"/>
<path d="M74.04 112L74.008 98.56L67.416 109.632H65.08L58.52 98.848V112H53.656V89.6H57.944L66.328 103.52L74.584 89.6H78.84L78.904 112H74.04ZM101.562 107.84V112H84.2185V89.6H101.147V93.76H89.3705V98.624H99.7705V102.656H89.3705V107.84H101.562ZM119.959 112L115.639 105.76H115.383H110.871V112H105.687V89.6H115.383C117.367 89.6 119.085 89.9307 120.535 90.592C122.007 91.2533 123.138 92.192 123.927 93.408C124.717 94.624 125.111 96.064 125.111 97.728C125.111 99.392 124.706 100.832 123.895 102.048C123.106 103.243 121.975 104.16 120.503 104.8L125.527 112H119.959ZM119.863 97.728C119.863 96.4693 119.458 95.5093 118.647 94.848C117.837 94.1653 116.653 93.824 115.095 93.824H110.871V101.632H115.095C116.653 101.632 117.837 101.291 118.647 100.608C119.458 99.9253 119.863 98.9653 119.863 97.728ZM149.763 89.6V112H145.507L134.339 98.4V112H129.219V89.6H133.507L144.642 103.2V89.6H149.763ZM168.781 91.648H160.909V89.6H179.021V91.648H171.149V112H168.781V91.648ZM187.275 95.04C189.472 95.04 191.157 95.5947 192.331 96.704C193.504 97.792 194.091 99.4133 194.091 101.568V112H191.915V109.376C191.403 110.251 190.645 110.933 189.643 111.424C188.661 111.915 187.488 112.16 186.123 112.16C184.245 112.16 182.752 111.712 181.643 110.816C180.533 109.92 179.979 108.736 179.979 107.264C179.979 105.835 180.491 104.683 181.515 103.808C182.56 102.933 184.213 102.496 186.475 102.496H191.819V101.472C191.819 100.021 191.413 98.9227 190.603 98.176C189.792 97.408 188.608 97.024 187.051 97.024C185.984 97.024 184.96 97.2053 183.979 97.568C182.997 97.9093 182.155 98.3893 181.451 99.008L180.427 97.312C181.28 96.5867 182.304 96.032 183.499 95.648C184.693 95.2427 185.952 95.04 187.275 95.04ZM186.475 110.368C187.755 110.368 188.853 110.08 189.771 109.504C190.688 108.907 191.371 108.053 191.819 106.944V104.192H186.539C183.659 104.192 182.219 105.195 182.219 107.2C182.219 108.181 182.592 108.96 183.339 109.536C184.085 110.091 185.131 110.368 186.475 110.368ZM204.774 112.16C203.408 112.16 202.096 111.968 200.838 111.584C199.6 111.179 198.63 110.677 197.926 110.08L198.95 108.288C199.654 108.843 200.539 109.301 201.606 109.664C202.672 110.005 203.782 110.176 204.934 110.176C206.47 110.176 207.6 109.941 208.326 109.472C209.072 108.981 209.446 108.299 209.446 107.424C209.446 106.805 209.243 106.325 208.838 105.984C208.432 105.621 207.92 105.355 207.302 105.184C206.683 104.992 205.862 104.811 204.838 104.64C203.472 104.384 202.374 104.128 201.542 103.872C200.71 103.595 199.995 103.136 199.398 102.496C198.822 101.856 198.534 100.971 198.534 99.84C198.534 98.432 199.12 97.28 200.294 96.384C201.467 95.488 203.099 95.04 205.19 95.04C206.278 95.04 207.366 95.1893 208.454 95.488C209.542 95.7653 210.438 96.1387 211.142 96.608L210.15 98.432C208.763 97.472 207.11 96.992 205.19 96.992C203.739 96.992 202.64 97.248 201.894 97.76C201.168 98.272 200.806 98.944 200.806 99.776C200.806 100.416 201.008 100.928 201.414 101.312C201.84 101.696 202.363 101.984 202.982 102.176C203.6 102.347 204.454 102.528 205.542 102.72C206.886 102.976 207.963 103.232 208.774 103.488C209.584 103.744 210.278 104.181 210.854 104.8C211.43 105.419 211.718 106.272 211.718 107.36C211.718 108.832 211.099 110.005 209.862 110.88C208.646 111.733 206.95 112.16 204.774 112.16ZM222.158 103.552L218.19 107.2V112H215.918V88.256H218.19V104.352L228.238 95.168H231.054L223.854 102.048L231.726 112H228.942L222.158 103.552ZM239.149 112.16C237.783 112.16 236.471 111.968 235.213 111.584C233.975 111.179 233.005 110.677 232.301 110.08L233.325 108.288C234.029 108.843 234.914 109.301 235.981 109.664C237.047 110.005 238.157 110.176 239.309 110.176C240.845 110.176 241.975 109.941 242.701 109.472C243.447 108.981 243.821 108.299 243.821 107.424C243.821 106.805 243.618 106.325 243.213 105.984C242.807 105.621 242.295 105.355 241.677 105.184C241.058 104.992 240.237 104.811 239.213 104.64C237.847 104.384 236.749 104.128 235.917 103.872C235.085 103.595 234.37 103.136 233.773 102.496C233.197 101.856 232.909 100.971 232.909 99.84C232.909 98.432 233.495 97.28 234.669 96.384C235.842 95.488 237.474 95.04 239.565 95.04C240.653 95.04 241.741 95.1893 242.829 95.488C243.917 95.7653 244.813 96.1387 245.517 96.608L244.525 98.432C243.138 97.472 241.485 96.992 239.565 96.992C238.114 96.992 237.015 97.248 236.269 97.76C235.543 98.272 235.181 98.944 235.181 99.776C235.181 100.416 235.383 100.928 235.789 101.312C236.215 101.696 236.738 101.984 237.357 102.176C237.975 102.347 238.829 102.528 239.917 102.72C241.261 102.976 242.338 103.232 243.149 103.488C243.959 103.744 244.653 104.181 245.229 104.8C245.805 105.419 246.093 106.272 246.093 107.36C246.093 108.832 245.474 110.005 244.237 110.88C243.021 111.733 241.325 112.16 239.149 112.16Z" fill="#2F3848"/>
</svg>
