<svg width="300" height="200" viewBox="0 0 300 200" fill="none" xmlns="http://www.w3.org/2000/svg">
<rect width="300" height="200" rx="25" fill="#3E5363"/>
<path d="M65.968 92.16C64.432 92.16 63.0133 91.84 61.712 91.2C60.432 90.5387 59.312 89.6533 58.352 88.544C57.392 87.4347 56.6453 86.1973 56.112 84.832C55.6 83.4453 55.344 82.0373 55.344 80.608C55.344 79.0933 55.6 77.6533 56.112 76.288C56.6453 74.9013 57.3813 73.6747 58.32 72.608C59.2587 71.52 60.368 70.6667 61.648 70.048C62.928 69.4293 64.3253 69.12 65.84 69.12C68.08 69.12 69.904 69.5787 71.312 70.496C72.72 71.4133 73.7867 72.608 74.512 74.08L72.784 75.232C72.0587 73.824 71.088 72.7893 69.872 72.128C68.656 71.4667 67.3013 71.136 65.808 71.136C64.5493 71.136 63.408 71.4027 62.384 71.936C61.3813 72.4693 60.5173 73.184 59.792 74.08C59.088 74.976 58.544 75.9893 58.16 77.12C57.776 78.2507 57.584 79.424 57.584 80.64C57.584 81.92 57.7973 83.136 58.224 84.288C58.6507 85.4187 59.248 86.432 60.016 87.328C60.8053 88.2027 61.712 88.896 62.736 89.408C63.7813 89.8987 64.912 90.144 66.128 90.144C67.4293 90.144 68.6667 89.8347 69.84 89.216C71.0347 88.5973 72.176 87.6373 73.264 86.336V82.56H68.208V80.832H75.152V92H73.264V88.672C71.1733 90.9973 68.7413 92.16 65.968 92.16ZM77.9622 87.2C77.9622 86.176 78.2609 85.2907 78.8583 84.544C79.4556 83.776 80.2769 83.1787 81.3223 82.752C82.3889 82.3253 83.6156 82.112 85.0023 82.112C85.8129 82.112 86.6556 82.1867 87.5303 82.336C88.4049 82.464 89.1836 82.6453 89.8663 82.88V81.472C89.8663 80.064 89.4503 78.944 88.6183 78.112C87.7863 77.28 86.6343 76.864 85.1623 76.864C84.2876 76.864 83.4129 77.0347 82.5383 77.376C81.6636 77.696 80.7569 78.176 79.8183 78.816L78.9863 77.28C80.0743 76.5333 81.1409 75.9787 82.1863 75.616C83.2316 75.232 84.2983 75.04 85.3863 75.04C87.4343 75.04 89.0556 75.6267 90.2503 76.8C91.4449 77.9733 92.0423 79.5947 92.0423 81.664V89.376C92.0423 89.952 92.3089 90.2507 92.8423 90.272V92C92.3729 92.064 92.0423 92.0853 91.8503 92.064C91.3169 92.0427 90.9116 91.872 90.6343 91.552C90.3569 91.232 90.2076 90.8907 90.1863 90.528L90.1543 89.312C89.4076 90.272 88.4369 91.0187 87.2423 91.552C86.0476 92.064 84.8316 92.32 83.5943 92.32C82.5063 92.32 81.5356 92.096 80.6823 91.648C79.8289 91.1787 79.1569 90.56 78.6663 89.792C78.1969 89.0027 77.9622 88.1387 77.9622 87.2ZM89.1303 88.48C89.6209 87.904 89.8663 87.3707 89.8663 86.88V84.448C88.3943 83.872 86.8583 83.584 85.2583 83.584C83.7009 83.584 82.4423 83.8933 81.4823 84.512C80.5223 85.1307 80.0423 85.9733 80.0423 87.04C80.0423 87.9573 80.3943 88.7893 81.0983 89.536C81.8236 90.2827 82.8263 90.656 84.1063 90.656C85.1516 90.656 86.1223 90.4533 87.0183 90.048C87.9356 89.6427 88.6396 89.12 89.1303 88.48ZM104.619 91.2C104.363 91.3067 103.893 91.4987 103.211 91.776C102.528 92.0533 101.739 92.192 100.843 92.192C99.9041 92.192 99.0828 91.9253 98.3788 91.392C97.6748 90.8587 97.3228 90.0587 97.3228 88.992V77.056H95.0188V75.328H97.3228V69.696H99.4988V75.328H103.339V77.056H99.4988V88.384C99.5414 89.0027 99.7548 89.4613 100.139 89.76C100.544 90.0373 101.003 90.176 101.515 90.176C102.112 90.176 102.645 90.08 103.115 89.888C103.605 89.6747 103.915 89.5253 104.043 89.44L104.619 91.2ZM112.81 92.32C111.444 92.32 110.175 92.096 109.002 91.648C107.85 91.1787 106.836 90.496 105.962 89.6L106.858 88.064C107.796 88.9387 108.735 89.5787 109.674 89.984C110.634 90.368 111.647 90.56 112.714 90.56C113.994 90.56 115.039 90.304 115.85 89.792C116.682 89.2587 117.098 88.5013 117.098 87.52C117.098 86.8587 116.895 86.3573 116.49 86.016C116.106 85.6533 115.54 85.3653 114.794 85.152C114.068 84.9387 113.194 84.6933 112.17 84.416C111.018 84.096 110.047 83.7653 109.258 83.424C108.49 83.0613 107.903 82.6133 107.498 82.08C107.114 81.5253 106.922 80.8107 106.922 79.936C106.922 78.8693 107.188 77.9733 107.722 77.248C108.276 76.5227 109.023 75.9787 109.962 75.616C110.922 75.232 111.988 75.04 113.161 75.04C114.442 75.04 115.572 75.2427 116.554 75.648C117.535 76.0533 118.335 76.6187 118.954 77.344L117.898 78.816C117.322 78.1333 116.607 77.632 115.754 77.312C114.922 76.9707 114.015 76.8 113.034 76.8C112.351 76.8 111.7 76.896 111.082 77.088C110.463 77.2587 109.951 77.5573 109.546 77.984C109.162 78.3893 108.97 78.9547 108.97 79.68C108.97 80.576 109.3 81.1947 109.962 81.536C110.623 81.8773 111.626 82.24 112.97 82.624C114.228 82.9653 115.327 83.3067 116.266 83.648C117.204 83.9893 117.93 84.448 118.442 85.024C118.954 85.5787 119.21 86.3573 119.21 87.36C119.21 88.9173 118.623 90.1333 117.45 91.008C116.276 91.8827 114.73 92.32 112.81 92.32ZM130.966 92.32C129.665 92.32 128.46 91.9893 127.35 91.328C126.241 90.6453 125.377 89.792 124.758 88.768V92H122.806V68.64H124.982V78.816C125.729 77.6853 126.625 76.7787 127.67 76.096C128.716 75.392 129.932 75.04 131.318 75.04C132.492 75.04 133.537 75.2853 134.454 75.776C135.393 76.2667 136.193 76.928 136.854 77.76C137.516 78.5707 138.017 79.4987 138.358 80.544C138.7 81.568 138.87 82.624 138.87 83.712C138.87 85.2693 138.518 86.6987 137.814 88C137.132 89.3013 136.193 90.3467 134.998 91.136C133.804 91.9253 132.46 92.32 130.966 92.32ZM130.454 90.4C131.67 90.4 132.737 90.08 133.654 89.44C134.593 88.8 135.329 87.9787 135.862 86.976C136.396 85.952 136.662 84.864 136.662 83.712C136.662 82.5387 136.406 81.44 135.894 80.416C135.404 79.392 134.71 78.56 133.814 77.92C132.918 77.28 131.884 76.96 130.71 76.96C129.409 76.96 128.257 77.376 127.254 78.208C126.273 79.04 125.516 80.0107 124.982 81.12V86.304C125.089 87.072 125.441 87.7653 126.038 88.384C126.636 89.0027 127.34 89.4933 128.15 89.856C128.961 90.2187 129.729 90.4 130.454 90.4ZM142.954 97.12C143.252 97.1413 143.54 97.152 143.818 97.152C144.095 97.1733 144.298 97.1627 144.426 97.12C144.682 97.0987 144.916 96.9493 145.13 96.672C145.364 96.416 145.642 95.9253 145.962 95.2C146.303 94.496 146.762 93.4293 147.338 92L140.074 75.328H142.378L148.49 89.76L154.122 75.328H156.298L147.658 96.832C147.423 97.4507 147.028 97.984 146.474 98.432C145.919 98.88 145.183 99.1147 144.266 99.136C144.074 99.1573 143.871 99.1573 143.658 99.136C143.444 99.136 143.21 99.1147 142.954 99.072V97.12ZM184.987 69.28V92H182.779V81.376H169.307V92H167.067V69.28H169.307V79.392H182.779V69.28H184.987ZM197.098 92.32C195.498 92.32 194.068 91.9253 192.81 91.136C191.572 90.3467 190.602 89.3013 189.898 88C189.194 86.6773 188.842 85.248 188.842 83.712C188.842 82.1547 189.194 80.7253 189.898 79.424C190.623 78.1013 191.604 77.0453 192.842 76.256C194.1 75.4453 195.519 75.04 197.098 75.04C198.698 75.04 200.116 75.4453 201.354 76.256C202.612 77.0453 203.594 78.1013 204.298 79.424C205.023 80.7253 205.386 82.1547 205.386 83.712C205.386 85.248 205.034 86.6773 204.33 88C203.626 89.3013 202.644 90.3467 201.386 91.136C200.148 91.9253 198.719 92.32 197.098 92.32ZM191.05 83.744C191.05 84.9813 191.316 86.112 191.85 87.136C192.404 88.1387 193.14 88.9387 194.058 89.536C194.975 90.112 195.988 90.4 197.098 90.4C198.207 90.4 199.22 90.1013 200.138 89.504C201.055 88.9067 201.791 88.096 202.346 87.072C202.9 86.048 203.178 84.9173 203.178 83.68C203.178 82.4427 202.9 81.312 202.346 80.288C201.791 79.264 201.055 78.4533 200.138 77.856C199.22 77.2587 198.207 76.96 197.098 76.96C196.01 76.96 195.007 77.2693 194.09 77.888C193.172 78.4853 192.436 79.296 191.882 80.32C191.327 81.344 191.05 82.4853 191.05 83.744ZM216.775 91.2C216.519 91.3067 216.05 91.4987 215.367 91.776C214.684 92.0533 213.895 92.192 212.999 92.192C212.06 92.192 211.239 91.9253 210.535 91.392C209.831 90.8587 209.479 90.0587 209.479 88.992V77.056H207.175V75.328H209.479V69.696H211.655V75.328H215.495V77.056H211.655V88.384C211.698 89.0027 211.911 89.4613 212.295 89.76C212.7 90.0373 213.159 90.176 213.671 90.176C214.268 90.176 214.802 90.08 215.271 89.888C215.762 89.6747 216.071 89.5253 216.199 89.44L216.775 91.2ZM226.413 92.32C224.813 92.32 223.383 91.9253 222.125 91.136C220.866 90.3467 219.874 89.2907 219.149 87.968C218.423 86.6453 218.061 85.1947 218.061 83.616C218.061 82.0587 218.413 80.6293 219.117 79.328C219.842 78.0267 220.834 76.992 222.093 76.224C223.351 75.4347 224.781 75.04 226.381 75.04C228.023 75.04 229.463 75.4347 230.701 76.224C231.938 77.0133 232.898 78.0587 233.581 79.36C234.285 80.64 234.637 82.048 234.637 83.584C234.637 83.9253 234.626 84.2133 234.605 84.448H220.333C220.439 85.6427 220.781 86.7093 221.357 87.648C221.933 88.5653 222.669 89.3013 223.565 89.856C224.461 90.3893 225.442 90.656 226.509 90.656C227.597 90.656 228.621 90.3787 229.581 89.824C230.541 89.2693 231.223 88.544 231.629 87.648L233.517 88.16C233.175 88.9707 232.642 89.696 231.917 90.336C231.213 90.9547 230.391 91.4453 229.453 91.808C228.514 92.1493 227.501 92.32 226.413 92.32ZM220.269 82.88H232.589C232.503 81.6853 232.173 80.6293 231.597 79.712C231.021 78.7733 230.285 78.048 229.389 77.536C228.493 77.0027 227.501 76.736 226.413 76.736C225.325 76.736 224.333 77.0027 223.437 77.536C222.541 78.048 221.805 78.7733 221.229 79.712C220.674 80.6293 220.354 81.6853 220.269 82.88ZM238.09 68.64H240.266V88.224C240.266 89.056 240.404 89.6 240.682 89.856C240.98 90.112 241.354 90.24 241.802 90.24C242.186 90.24 242.57 90.1973 242.954 90.112C243.359 90.0267 243.69 89.9413 243.946 89.856L244.33 91.616C243.924 91.7867 243.423 91.9253 242.826 92.032C242.25 92.1387 241.748 92.192 241.322 92.192C240.34 92.192 239.551 91.904 238.954 91.328C238.378 90.752 238.09 89.9627 238.09 88.96V68.64Z" fill="white"/>
<path d="M130.756 114.52C130.756 113.752 130.888 112.99 131.152 112.234C131.428 111.478 131.824 110.794 132.34 110.182C132.856 109.558 133.492 109.066 134.248 108.706C135.004 108.334 135.862 108.148 136.822 108.148C137.95 108.148 138.922 108.412 139.738 108.94C140.554 109.456 141.154 110.122 141.538 110.938L140.548 111.55C140.272 110.986 139.924 110.542 139.504 110.218C139.084 109.882 138.634 109.642 138.154 109.498C137.686 109.354 137.218 109.282 136.75 109.282C135.982 109.282 135.304 109.438 134.716 109.75C134.128 110.05 133.63 110.458 133.222 110.974C132.826 111.49 132.526 112.06 132.322 112.684C132.118 113.308 132.016 113.944 132.016 114.592C132.016 115.3 132.136 115.978 132.376 116.626C132.616 117.262 132.952 117.832 133.384 118.336C133.816 118.84 134.32 119.242 134.896 119.542C135.484 119.83 136.12 119.974 136.804 119.974C137.284 119.974 137.776 119.89 138.28 119.722C138.784 119.554 139.252 119.296 139.684 118.948C140.116 118.6 140.47 118.15 140.746 117.598L141.79 118.138C141.514 118.774 141.1 119.314 140.548 119.758C140.008 120.202 139.396 120.538 138.712 120.766C138.04 120.994 137.38 121.108 136.732 121.108C135.856 121.108 135.052 120.922 134.32 120.55C133.588 120.166 132.952 119.662 132.412 119.038C131.884 118.402 131.476 117.694 131.188 116.914C130.9 116.122 130.756 115.324 130.756 114.52ZM155.264 121V110.596L150.638 118.678H149.846L145.202 110.596V121H143.942V108.22H145.238L150.224 116.968L155.246 108.22H156.524V121H155.264ZM167.197 110.614C166.837 110.218 166.357 109.894 165.757 109.642C165.157 109.378 164.473 109.246 163.705 109.246C162.577 109.246 161.755 109.462 161.239 109.894C160.723 110.314 160.465 110.89 160.465 111.622C160.465 112.126 160.591 112.522 160.843 112.81C161.095 113.098 161.479 113.338 161.995 113.53C162.523 113.71 163.195 113.89 164.011 114.07C164.923 114.262 165.709 114.49 166.369 114.754C167.029 115.018 167.539 115.378 167.899 115.834C168.259 116.278 168.439 116.884 168.439 117.652C168.439 118.432 168.241 119.08 167.845 119.596C167.449 120.112 166.903 120.496 166.207 120.748C165.511 120.988 164.719 121.108 163.831 121.108C161.839 121.108 160.129 120.49 158.701 119.254L159.331 118.228C159.787 118.708 160.411 119.122 161.203 119.47C162.007 119.818 162.895 119.992 163.867 119.992C164.875 119.992 165.667 119.806 166.243 119.434C166.819 119.062 167.107 118.51 167.107 117.778C167.107 117.25 166.963 116.83 166.675 116.518C166.387 116.194 165.955 115.93 165.379 115.726C164.803 115.522 164.095 115.324 163.255 115.132C162.367 114.928 161.617 114.7 161.005 114.448C160.405 114.196 159.949 113.866 159.637 113.458C159.325 113.05 159.169 112.498 159.169 111.802C159.169 111.01 159.361 110.344 159.745 109.804C160.141 109.252 160.681 108.838 161.365 108.562C162.049 108.274 162.835 108.13 163.723 108.13C164.563 108.13 165.319 108.262 165.991 108.526C166.663 108.778 167.269 109.138 167.809 109.606L167.197 110.614Z" fill="white"/>
</svg>
