<svg width="300" height="200" viewBox="0 0 300 200" fill="none" xmlns="http://www.w3.org/2000/svg">
<rect width="300" height="200" rx="25" fill="black"/>
<path d="M142.334 101.605C141.484 101.605 140.642 101.774 139.858 102.102C139.065 102.435 138.331 102.895 137.686 103.464C137.041 104.029 136.515 104.717 136.139 105.489C135.764 106.256 135.572 107.101 135.578 107.955C135.55 109.063 135.872 110.152 136.498 111.066C137.128 111.973 137.989 112.694 138.993 113.155C140.063 113.659 141.233 113.914 142.416 113.901C143.452 113.919 144.482 113.745 145.454 113.386C146.293 113.062 147.064 112.585 147.727 111.977C148.326 111.438 148.806 110.78 149.135 110.045L151.896 112.493C150.992 114.069 149.687 115.377 148.114 116.285C146.301 117.26 144.284 117.795 142.226 117.846C140.168 117.897 138.127 117.463 136.268 116.579C134.701 115.78 133.372 114.583 132.412 113.109C131.459 111.646 130.962 109.932 130.985 108.185C130.967 106.802 131.303 105.436 131.961 104.218C132.607 103.022 133.476 101.96 134.519 101.089C135.591 100.186 136.804 99.4642 138.109 98.9539C139.419 98.4266 140.82 98.1578 142.232 98.1623L142.334 101.605ZM158.983 117.398H153.857L138.118 96.6161C137.842 96.1927 137.529 95.6957 137.198 95.0238C136.822 94.3469 136.514 93.6348 136.277 92.8977C136.022 92.1195 135.891 91.3055 135.891 90.4863C135.877 89.2006 136.194 87.9329 136.811 86.8048C137.46 85.6478 138.415 84.6924 139.572 84.0436C140.906 83.3186 142.408 82.9598 143.926 83.0036C145.583 82.9764 147.223 83.3423 148.712 84.0712C150.007 84.6993 151.181 85.5497 152.182 86.5839L150 89.4923C149.161 88.721 148.234 88.0507 147.239 87.4951C146.43 87.0361 145.519 86.7862 144.588 86.768C144.016 86.7341 143.443 86.8215 142.907 87.0245C142.371 87.2275 141.884 87.5416 141.478 87.9461C141.113 88.3267 140.827 88.7754 140.636 89.2665C140.445 89.7576 140.352 90.2816 140.364 90.8085C140.366 91.3829 140.478 91.9517 140.695 92.4836C140.887 92.9887 141.124 93.4754 141.404 93.9378C141.567 94.1796 141.703 94.4389 141.809 94.7109L158.983 117.398ZM153.719 98.1623H157.759L152.449 111.775L149.273 109.695L153.719 98.1623Z" fill="#AA9344"/>
<path d="M10 117.482L24.4225 83.0039H24.7262L39.167 117.482H34.0865L23.2812 89.962L26.4381 87.9004L14.3994 117.482H10ZM13.1293 113.644H36.323L37.7865 117.482H11.8408L13.1293 113.644Z" fill="white"/>
<path d="M54.1784 84.375C55.7523 84.3599 57.3194 84.5833 58.8264 85.0377C60.1676 85.4542 61.4171 86.1227 62.5079 87.0073C63.5628 87.887 64.4086 88.9906 64.9838 90.2379C65.6067 91.62 65.9208 93.1214 65.9042 94.6373C65.905 95.9416 65.7095 97.2385 65.3243 98.4845C64.9525 99.7346 64.3257 100.894 63.4835 101.89C62.5417 102.969 61.3638 103.816 60.0413 104.366C58.3628 105.034 56.564 105.348 54.7583 105.286H49.8342V117.481H45.3979V84.3474L54.1784 84.375ZM54.6386 100.997C55.7601 101.034 56.8767 100.833 57.9152 100.408C58.7074 100.068 59.4053 99.5402 59.9493 98.8711C60.4193 98.2792 60.7751 97.6051 60.9985 96.8831C61.2058 96.2152 61.3144 95.5207 61.3206 94.8214C61.3176 94.1204 61.2027 93.4244 60.9801 92.7597C60.738 92.0336 60.367 91.357 59.8848 90.7625C59.3472 90.116 58.6751 89.5946 57.9152 89.2347C56.9888 88.8128 55.9783 88.6082 54.9608 88.6364H49.8342V100.997H54.6386ZM60.0873 103.565L68.7389 117.481H63.6216L54.7859 103.676L60.0873 103.565Z" fill="white"/>
<path d="M72.779 100.951C72.7668 98.7188 73.2116 96.5075 74.0859 94.4533C75.8092 90.3694 79.0395 87.1062 83.1057 85.3415C85.1733 84.4667 87.3954 84.0159 89.6405 84.0159C91.8855 84.0159 94.1076 84.4667 96.1752 85.3415C100.266 87.1011 103.527 90.3621 105.287 94.4533C106.189 96.5166 106.65 98.7455 106.64 100.997C106.656 103.251 106.201 105.483 105.305 107.55C104.441 109.565 103.19 111.391 101.624 112.925C100.073 114.468 98.2383 115.696 96.2212 116.543C94.1291 117.309 91.9017 117.638 89.6773 117.509C87.4471 117.649 85.2117 117.335 83.1057 116.589C81.0946 115.749 79.2659 114.527 77.7215 112.99C76.1277 111.421 74.8681 109.545 74.0187 107.476C73.1692 105.407 72.7475 103.188 72.779 100.951V100.951ZM77.3809 100.997C77.3601 104.304 78.6509 107.485 80.9704 109.842C82.0972 111.003 83.4339 111.94 84.9097 112.603C86.4377 113.253 88.0811 113.589 89.7417 113.589C91.4022 113.589 93.0457 113.253 94.5737 112.603C96.0226 111.942 97.3364 111.019 98.4486 109.879C100.177 108.08 101.345 105.817 101.813 103.367C102.28 100.916 102.026 98.3822 101.081 96.0732C100.461 94.5943 99.5679 93.2454 98.4486 92.0971C97.3262 90.9449 95.9875 90.0254 94.5093 89.3912C92.9838 88.733 91.3386 88.3977 89.6773 88.4064C87.996 88.4038 86.3333 88.7583 84.7992 89.4464C81.8193 90.7511 79.4744 93.1787 78.2737 96.2021C77.6653 97.7272 77.3559 99.3552 77.3625 100.997H77.3809ZM96.709 112.833L108.067 113.183V117.509H88.4992L96.709 112.833Z" fill="white"/>
<path d="M174.28 84.3749H196.305V88.6363H187.423V117.481H183.033V88.6363H174.326L174.28 84.3749Z" fill="white"/>
<path d="M203.364 84.3749H224.882V88.6363H207.8V98.7605H223.051V103.059H207.8V113.275H225.527V117.527H203.364V84.3749Z" fill="white"/>
<path d="M257.529 115.015C256.809 115.476 256.059 115.888 255.283 116.248C254.223 116.747 253.112 117.13 251.97 117.389C250.594 117.711 249.185 117.865 247.773 117.849C245.41 117.854 243.069 117.388 240.888 116.478C238.925 115.658 237.15 114.444 235.673 112.912C234.196 111.38 233.049 109.561 232.301 107.569C231.53 105.528 231.143 103.363 231.16 101.181C231.136 98.8485 231.538 96.531 232.347 94.3428C233.101 92.3096 234.263 90.4522 235.762 88.8849C237.249 87.341 239.038 86.1192 241.017 85.2954C243.086 84.4296 245.309 83.9943 247.552 84.016C249.395 83.9997 251.228 84.2793 252.982 84.8444C254.432 85.3028 255.828 85.9202 257.142 86.6852L255.357 90.9005C254.313 90.1832 253.192 89.5843 252.016 89.115C250.653 88.5522 249.191 88.2705 247.717 88.2866C246.135 88.2602 244.566 88.5741 243.116 89.207C241.681 89.8421 240.388 90.7592 239.314 91.9037C237.011 94.3376 235.747 97.573 235.789 100.924C235.777 102.617 236.063 104.3 236.636 105.894C237.166 107.387 237.992 108.759 239.066 109.925C240.124 111.085 241.417 112.007 242.858 112.631C244.456 113.278 246.169 113.591 247.892 113.551C249.425 113.577 250.948 113.315 252.384 112.778C253.539 112.344 254.631 111.759 255.633 111.039L257.529 115.015Z" fill="white"/>
<path d="M269.485 97.7298L269.393 99.3773L269.936 98.5582L283.493 84.375H289.218L275.522 98.5766L290 117.481H284.367L272.31 101.411L269.549 104.117V117.481H265.058V84.3474H269.549L269.485 97.7298Z" fill="white"/>
</svg>
