<svg width="300" height="200" viewBox="0 0 300 200" fill="none" xmlns="http://www.w3.org/2000/svg">
<rect width="300" height="200" rx="25" fill="#0B72B9"/>
<g clip-path="url(#clip0)">
<path d="M280.044 54.3525L274.031 65.5151L268.806 75.2015L231.206 145H-0.625V54.3525H280.044Z" fill="black"/>
<path d="M173.634 67.6107H175.522L184.962 90.3307H182.594L179.65 83.2267H169.442L166.53 90.3307H164.13L173.634 67.6107ZM179.138 81.4667L174.562 70.2347L169.922 81.4667H179.138ZM196.091 75.5787C194.64 75.6214 193.36 76.0267 192.251 76.7947C191.163 77.5627 190.395 78.6187 189.947 79.9627V90.3307H187.771V73.6587H189.819V77.6587C190.395 76.4854 191.152 75.536 192.091 74.8107C193.051 74.0854 194.064 73.68 195.131 73.5947C195.344 73.5734 195.526 73.5627 195.675 73.5627C195.824 73.5627 195.963 73.5734 196.091 73.5947V75.5787ZM205.722 90.6507C204.101 90.6507 202.661 90.256 201.402 89.4667C200.143 88.656 199.151 87.6 198.426 86.2987C197.701 84.976 197.338 83.5254 197.338 81.9467C197.338 80.368 197.69 78.9387 198.394 77.6587C199.098 76.3574 200.079 75.3227 201.338 74.5547C202.597 73.7654 204.047 73.3707 205.69 73.3707C207.247 73.3707 208.613 73.7334 209.786 74.4587C210.981 75.1627 211.877 76.1227 212.474 77.3387L210.362 78.0107C209.893 77.1574 209.231 76.496 208.378 76.0267C207.546 75.536 206.618 75.2907 205.594 75.2907C204.463 75.2907 203.439 75.5787 202.522 76.1547C201.626 76.7307 200.901 77.5307 200.346 78.5547C199.813 79.5574 199.546 80.688 199.546 81.9467C199.546 83.2054 199.823 84.3467 200.378 85.3707C200.933 86.3947 201.669 87.216 202.586 87.8347C203.503 88.432 204.517 88.7307 205.626 88.7307C206.351 88.7307 207.055 88.6027 207.738 88.3467C208.421 88.0907 209.007 87.7494 209.498 87.3227C209.989 86.8747 210.319 86.3947 210.49 85.8827L212.634 86.5227C212.335 87.312 211.845 88.0267 211.162 88.6667C210.479 89.2854 209.669 89.776 208.73 90.1387C207.791 90.48 206.789 90.6507 205.722 90.6507Z" fill="white"/>
<path d="M13.9056 122.564V99.8437H21.6176C24.0283 99.8437 26.0336 100.356 27.6336 101.38C29.255 102.382 30.471 103.748 31.2816 105.476C32.0923 107.182 32.4976 109.081 32.4976 111.172C32.4976 113.476 32.0496 115.481 31.1536 117.188C30.2576 118.894 28.999 120.217 27.3776 121.156C25.7563 122.094 23.8363 122.564 21.6176 122.564H13.9056ZM30.2576 111.172C30.2576 109.358 29.9163 107.748 29.2336 106.34C28.5723 104.932 27.591 103.833 26.2896 103.044C25.0096 102.233 23.4523 101.828 21.6176 101.828H16.1456V120.58H21.6176C23.495 120.58 25.0736 120.164 26.3536 119.332C27.6336 118.5 28.6043 117.38 29.2656 115.972C29.927 114.564 30.2576 112.964 30.2576 111.172ZM43.5326 122.884C41.9326 122.884 40.5033 122.489 39.2446 121.7C37.986 120.91 36.994 119.854 36.2686 118.532C35.5433 117.209 35.1806 115.758 35.1806 114.18C35.1806 112.622 35.5326 111.193 36.2366 109.892C36.962 108.59 37.954 107.556 39.2126 106.788C40.4713 105.998 41.9006 105.604 43.5006 105.604C45.1433 105.604 46.5833 105.998 47.8206 106.788C49.058 107.577 50.018 108.622 50.7006 109.924C51.4046 111.204 51.7566 112.612 51.7566 114.148C51.7566 114.489 51.746 114.777 51.7246 115.012H37.4526C37.5593 116.206 37.9006 117.273 38.4766 118.212C39.0526 119.129 39.7886 119.865 40.6846 120.42C41.5806 120.953 42.562 121.22 43.6286 121.22C44.7166 121.22 45.7406 120.942 46.7006 120.388C47.6606 119.833 48.3433 119.108 48.7486 118.212L50.6366 118.724C50.2953 119.534 49.762 120.26 49.0366 120.9C48.3326 121.518 47.5113 122.009 46.5726 122.372C45.634 122.713 44.6206 122.884 43.5326 122.884ZM37.3886 113.444H49.7086C49.6233 112.249 49.2926 111.193 48.7166 110.276C48.1406 109.337 47.4046 108.612 46.5086 108.1C45.6126 107.566 44.6206 107.3 43.5326 107.3C42.4446 107.3 41.4526 107.566 40.5566 108.1C39.6606 108.612 38.9246 109.337 38.3486 110.276C37.794 111.193 37.474 112.249 37.3886 113.444ZM59.6364 122.564L52.8844 105.892H55.1564L60.8524 120.388L66.5804 105.892H68.7244L61.9724 122.564H59.6364ZM78.3764 122.884C76.7764 122.884 75.347 122.489 74.0884 121.7C72.8297 120.91 71.8377 119.854 71.1124 118.532C70.387 117.209 70.0244 115.758 70.0244 114.18C70.0244 112.622 70.3764 111.193 71.0804 109.892C71.8057 108.59 72.7977 107.556 74.0564 106.788C75.315 105.998 76.7444 105.604 78.3444 105.604C79.987 105.604 81.427 105.998 82.6644 106.788C83.9017 107.577 84.8617 108.622 85.5444 109.924C86.2484 111.204 86.6004 112.612 86.6004 114.148C86.6004 114.489 86.5897 114.777 86.5684 115.012H72.2964C72.403 116.206 72.7444 117.273 73.3204 118.212C73.8964 119.129 74.6324 119.865 75.5284 120.42C76.4244 120.953 77.4057 121.22 78.4724 121.22C79.5604 121.22 80.5844 120.942 81.5444 120.388C82.5044 119.833 83.187 119.108 83.5924 118.212L85.4804 118.724C85.139 119.534 84.6057 120.26 83.8804 120.9C83.1764 121.518 82.355 122.009 81.4164 122.372C80.4777 122.713 79.4644 122.884 78.3764 122.884ZM72.2324 113.444H84.5524C84.467 112.249 84.1364 111.193 83.5604 110.276C82.9844 109.337 82.2484 108.612 81.3524 108.1C80.4564 107.566 79.4644 107.3 78.3764 107.3C77.2884 107.3 76.2964 107.566 75.4004 108.1C74.5044 108.612 73.7684 109.337 73.1924 110.276C72.6377 111.193 72.3177 112.249 72.2324 113.444ZM90.0536 99.2037H92.2296V118.788C92.2296 119.62 92.3683 120.164 92.6456 120.42C92.9443 120.676 93.3176 120.804 93.7656 120.804C94.1496 120.804 94.5336 120.761 94.9176 120.676C95.323 120.59 95.6536 120.505 95.9096 120.42L96.2936 122.18C95.8883 122.35 95.387 122.489 94.7896 122.596C94.2136 122.702 93.7123 122.756 93.2856 122.756C92.3043 122.756 91.515 122.468 90.9176 121.892C90.3416 121.316 90.0536 120.526 90.0536 119.524V99.2037ZM105.78 122.884C104.18 122.884 102.751 122.489 101.492 121.7C100.255 120.91 99.2844 119.865 98.5804 118.564C97.8764 117.241 97.5244 115.812 97.5244 114.276C97.5244 112.718 97.8764 111.289 98.5804 109.988C99.3057 108.665 100.287 107.609 101.524 106.82C102.783 106.009 104.202 105.604 105.78 105.604C107.38 105.604 108.799 106.009 110.036 106.82C111.295 107.609 112.276 108.665 112.98 109.988C113.706 111.289 114.068 112.718 114.068 114.276C114.068 115.812 113.716 117.241 113.012 118.564C112.308 119.865 111.327 120.91 110.068 121.7C108.831 122.489 107.402 122.884 105.78 122.884ZM99.7324 114.308C99.7324 115.545 99.999 116.676 100.532 117.7C101.087 118.702 101.823 119.502 102.74 120.1C103.658 120.676 104.671 120.964 105.78 120.964C106.89 120.964 107.903 120.665 108.82 120.068C109.738 119.47 110.474 118.66 111.028 117.636C111.583 116.612 111.86 115.481 111.86 114.244C111.86 113.006 111.583 111.876 111.028 110.852C110.474 109.828 109.738 109.017 108.82 108.42C107.903 107.822 106.89 107.524 105.78 107.524C104.692 107.524 103.69 107.833 102.772 108.452C101.855 109.049 101.119 109.86 100.564 110.884C100.01 111.908 99.7324 113.049 99.7324 114.308ZM126.22 122.884C124.833 122.884 123.585 122.521 122.476 121.796C121.388 121.07 120.524 120.174 119.884 119.108V129.38H117.708V105.892H119.66V109.124C120.321 108.078 121.196 107.236 122.284 106.596C123.393 105.934 124.588 105.604 125.868 105.604C127.02 105.604 128.076 105.849 129.036 106.34C129.996 106.809 130.828 107.449 131.532 108.26C132.257 109.07 132.812 109.998 133.196 111.044C133.58 112.068 133.772 113.134 133.772 114.244C133.772 115.801 133.452 117.241 132.812 118.564C132.193 119.865 131.308 120.91 130.156 121.7C129.025 122.489 127.713 122.884 126.22 122.884ZM125.612 120.964C126.828 120.964 127.873 120.644 128.748 120.004C129.644 119.342 130.337 118.5 130.828 117.476C131.318 116.452 131.564 115.374 131.564 114.244C131.564 113.049 131.286 111.94 130.732 110.916C130.177 109.892 129.43 109.07 128.492 108.452C127.574 107.833 126.529 107.524 125.356 107.524C124.63 107.524 123.862 107.716 123.052 108.1C122.262 108.462 121.558 108.964 120.94 109.604C120.342 110.222 119.99 110.905 119.884 111.652V116.772C120.374 117.945 121.142 118.937 122.188 119.748C123.233 120.558 124.374 120.964 125.612 120.964ZM162.258 122.564H160.082V113.252C160.082 111.332 159.772 109.913 159.154 108.996C158.535 108.057 157.618 107.588 156.402 107.588C155.122 107.588 153.991 108.036 153.01 108.932C152.028 109.828 151.335 110.98 150.93 112.388V122.564H148.754V113.252C148.754 111.289 148.444 109.86 147.826 108.964C147.228 108.046 146.322 107.588 145.106 107.588C143.847 107.588 142.716 108.025 141.714 108.9C140.732 109.774 140.039 110.926 139.634 112.356V122.564H137.458V105.892H139.442V109.668C140.124 108.388 141.02 107.396 142.13 106.692C143.239 105.966 144.466 105.604 145.81 105.604C147.196 105.604 148.316 106.009 149.17 106.82C150.023 107.609 150.546 108.633 150.738 109.892C152.274 107.033 154.418 105.604 157.17 105.604C159.047 105.604 160.359 106.265 161.106 107.588C161.874 108.889 162.258 110.628 162.258 112.804V122.564ZM174.064 122.884C172.464 122.884 171.035 122.489 169.776 121.7C168.517 120.91 167.525 119.854 166.8 118.532C166.075 117.209 165.712 115.758 165.712 114.18C165.712 112.622 166.064 111.193 166.768 109.892C167.493 108.59 168.485 107.556 169.744 106.788C171.003 105.998 172.432 105.604 174.032 105.604C175.675 105.604 177.115 105.998 178.352 106.788C179.589 107.577 180.549 108.622 181.232 109.924C181.936 111.204 182.288 112.612 182.288 114.148C182.288 114.489 182.277 114.777 182.256 115.012H167.984C168.091 116.206 168.432 117.273 169.008 118.212C169.584 119.129 170.32 119.865 171.216 120.42C172.112 120.953 173.093 121.22 174.16 121.22C175.248 121.22 176.272 120.942 177.232 120.388C178.192 119.833 178.875 119.108 179.28 118.212L181.168 118.724C180.827 119.534 180.293 120.26 179.568 120.9C178.864 121.518 178.043 122.009 177.104 122.372C176.165 122.713 175.152 122.884 174.064 122.884ZM167.92 113.444H180.24C180.155 112.249 179.824 111.193 179.248 110.276C178.672 109.337 177.936 108.612 177.04 108.1C176.144 107.566 175.152 107.3 174.064 107.3C172.976 107.3 171.984 107.566 171.088 108.1C170.192 108.612 169.456 109.337 168.88 110.276C168.325 111.193 168.005 112.249 167.92 113.444ZM199.661 122.564H197.485V113.252C197.485 111.289 197.186 109.86 196.589 108.964C196.013 108.046 195.117 107.588 193.901 107.588C193.048 107.588 192.205 107.801 191.373 108.228C190.541 108.633 189.805 109.198 189.165 109.924C188.546 110.628 188.098 111.438 187.821 112.356V122.564H185.645V105.892H187.629V109.668C188.29 108.452 189.261 107.47 190.541 106.724C191.821 105.977 193.208 105.604 194.701 105.604C195.938 105.604 196.92 105.902 197.645 106.5C198.37 107.076 198.882 107.908 199.181 108.996C199.501 110.062 199.661 111.332 199.661 112.804V122.564ZM212.145 121.764C211.889 121.87 211.42 122.062 210.737 122.34C210.054 122.617 209.265 122.756 208.369 122.756C207.43 122.756 206.609 122.489 205.905 121.956C205.201 121.422 204.849 120.622 204.849 119.556V107.62H202.545V105.892H204.849V100.26H207.025V105.892H210.865V107.62H207.025V118.948C207.068 119.566 207.281 120.025 207.665 120.324C208.07 120.601 208.529 120.74 209.041 120.74C209.638 120.74 210.172 120.644 210.641 120.452C211.132 120.238 211.441 120.089 211.569 120.004L212.145 121.764Z" fill="white"/>
<path d="M239.025 130.386L268.806 75.2015L274.031 65.5151L239.025 130.386ZM231.144 145L231.138 145.007L226.25 154.065" fill="black"/>
<path d="M274.225 65.2043L238.963 130.542C231.138 123.529 226.182 113.176 226.182 101.619C226.182 80.5237 242.694 63.4172 263.057 63.4172C266.95 63.4172 270.707 64.0453 274.225 65.2043Z" fill="#0B72B9"/>
<path d="M299.932 101.619C299.932 122.714 283.419 139.82 263.057 139.82C253.85 139.82 245.425 136.324 238.963 130.542L274.225 65.2043C289.132 70.1058 299.932 84.5576 299.932 101.619Z" fill="black"/>
<path d="M272.002 71.7135L271.945 123.758L267.152 123.752L267.189 89.9207L248.814 123.726L243.852 123.719L272.002 71.7135V71.7135Z" fill="white"/>
<path d="M285.625 43.9928L280.044 54.3525L274.031 65.5151L268.806 75.2014L231.206 145L231.2 145.006L225.625 155.36" fill="black"/>
</g>
<defs>
<clipPath id="clip0">
<rect width="300" height="90" fill="white" transform="translate(0 55)"/>
</clipPath>
</defs>
</svg>
